# xmcd
#
# Track frame offsets: 
#        150
#        19967
#        42683
#        66863
#        89376
#        108159
#        123396
#        145849
#        165491
#        184056
#        203741
#        221562
#
# Disc length: 3211 seconds
#
# Revision: 0
# Processed by: cddbd v1.5.2PL0 Copyright (c) Steve Scherf et al.
# Submitted via: ExactAudioCopy v1.0b4
#
DISCID=ac0c890c
DTITLE=Serkan Kaya - Mesele
DYEAR=1900
DGENRE=
TTITLE0=Mesele
TTITLE1=Vatan
TTITLE2=Gönül Bahçem
TTITLE3=Kalakaldım
TTITLE4=Onursuz Olmasın Aşk
TTITLE5=Benden Adam Olmaz
TTITLE6=Paşa Gönlüm
TTITLE7=Kalbim Senin Hala
TTITLE8=Ezo gelin
TTITLE9=Him Him Yar
TTITLE10=Mesele (Akustik Versiyon)
TTITLE11=Mesele (Club Veriyon)
EXTD=
EXTT0=
EXTT1=
EXTT2=
EXTT3=
EXTT4=
EXTT5=
EXTT6=
EXTT7=
EXTT8=
EXTT9=
EXTT10=
EXTT11=
PLAYORDER=
